<svg width="22" height="14" viewBox="0 0 22 14" fill="none" xmlns="http://www.w3.org/2000/svg">
<path d="M0 13.5C0 13.7761 0.223858 14 0.5 14H8.56324C8.83938 14 9.06324 13.7761 9.06324 13.5V12.374C9.06324 12.0979 8.83938 11.874 8.56324 11.874H3.0093C2.73316 11.874 2.5093 11.6502 2.5093 11.374V8.55273C2.5093 8.27659 2.73316 8.05273 3.0093 8.05273H8.04244C8.31859 8.05273 8.54244 7.82888 8.54244 7.55273V6.42676C8.54244 6.15062 8.31859 5.92676 8.04244 5.92676H3.0093C2.73316 5.92676 2.5093 5.7029 2.5093 5.42676V2.62598C2.5093 2.34983 2.73316 2.12598 3.0093 2.12598H8.50913C8.78527 2.12598 9.00913 1.90212 9.00913 1.62598V0.5C9.00913 0.223858 8.78527 0 8.50913 0H0.500001C0.223858 0 0 0.223858 0 0.5V13.5Z" fill="#1D1D1D"/>
<path d="M22 0.5C22 0.223857 21.7761 0 21.5 0H20.0042C19.7281 0 19.5042 0.223858 19.5042 0.5V9.46329C19.5042 9.50729 19.4686 9.54297 19.4245 9.54297C19.3982 9.54297 19.3736 9.52997 19.3588 9.50824L13.0113 0.217932C12.9181 0.0815616 12.7636 0 12.5984 0H11.1168C10.8407 0 10.6168 0.223858 10.6168 0.5V13.5C10.6168 13.7761 10.8407 14 11.1168 14H12.6261C12.9023 14 13.1261 13.7761 13.1261 13.5V4.53915C13.1261 4.49757 13.1598 4.46387 13.2014 4.46387C13.2263 4.46387 13.2495 4.47613 13.2635 4.49663L19.6191 13.7824C19.7123 13.9186 19.8667 14 20.0317 14H21.5C21.7761 14 22 13.7761 22 13.5V0.5Z" fill="#1D1D1D"/>
</svg>
