<svg width="40" height="40" viewBox="0 0 40 40" fill="none" xmlns="http://www.w3.org/2000/svg">
<mask id="mask0" mask-type="alpha" maskUnits="userSpaceOnUse" x="0" y="0" width="40" height="40">
<path d="M19.6464 0.353553C19.8417 0.158291 20.1583 0.158291 20.3536 0.353553L39.6464 19.6464C39.8417 19.8417 39.8417 20.1583 39.6464 20.3536L20.3536 39.6464C20.1583 39.8417 19.8417 39.8417 19.6464 39.6464L0.353553 20.3536C0.158291 20.1583 0.158291 19.8417 0.353553 19.6464L19.6464 0.353553Z" fill="#C4C4C4"/>
</mask>
<g mask="url(#mask0)">
<path d="M16.6667 3.33333L20 0L40 20L16.6667 3.33333Z" fill="#55EF14"/>
<path d="M16.6667 3.33333L40 20L13.3333 6.66666L16.6667 3.33333Z" fill="#91F466"/>
<path d="M13.3333 6.66667L10 10L40 20L13.3333 6.66667Z" fill="#BAF8A0"/>
<path d="M3.33333 23.3333L0 20L20 0L3.33333 23.3333Z" fill="#1D1D1D"/>
<path d="M6.66667 26.6667L3.33334 23.3333L20 0L6.66667 26.6667Z" fill="#525252"/>
<path d="M10 30L6.66666 26.6667L20 0L10 30Z" fill="#707070"/>
<path d="M20 40L0 20L23.3333 36.6667L20 40Z" fill="#55EF14"/>
<path d="M26.6667 33.3333L23.3333 36.6667L0 20L26.6667 33.3333Z" fill="#91F466"/>
<path d="M30 30L26.6667 33.3333L0 20L30 30Z" fill="#BAF8A0"/>
<path fill-rule="evenodd" clip-rule="evenodd" d="M40 20L35.3846 18.4615L20 40L40 20Z" fill="#1D1D1D"/>
<path fill-rule="evenodd" clip-rule="evenodd" d="M35.3846 18.4615L20 40L31.4286 17.1429L35.3846 18.4615Z" fill="#525252"/>
<path fill-rule="evenodd" clip-rule="evenodd" d="M31.4286 17.1429L20 40L28 16L31.4286 17.1429Z" fill="#707070"/>
</g>
</svg>
