<svg width="165" height="29" viewBox="0 0 165 29" fill="none" xmlns="http://www.w3.org/2000/svg">
<path d="M16.5291 0.300003V4.392H10.6701V22H6.39213V4.392H0.564133V0.300003H16.5291Z" fill="#1D1D1D"/>
<path d="M17.7449 15.893C18.2822 17.8357 19.7392 18.807 22.1159 18.807C23.6452 18.807 24.8026 18.2903 25.5879 17.257L28.8119 19.117C27.2826 21.3283 25.0299 22.434 22.0539 22.434C19.4912 22.434 17.4349 21.659 15.8849 20.109C14.3349 18.559 13.5599 16.606 13.5599 14.25C13.5599 11.9147 14.3246 9.972 15.8539 8.422C17.3832 6.85134 19.3466 6.066 21.7439 6.066C24.0172 6.066 25.8876 6.85134 27.3549 8.422C28.8429 9.99267 29.5869 11.9353 29.5869 14.25C29.5869 14.7667 29.5352 15.3143 29.4319 15.893H17.7449ZM17.6829 12.793H25.5879C25.3606 11.739 24.8852 10.9537 24.1619 10.437C23.4592 9.92034 22.6532 9.662 21.7439 9.662C20.6692 9.662 19.7806 9.941 19.0779 10.499C18.3752 11.0363 17.9102 11.801 17.6829 12.793Z" fill="#1D1D1D"/>
<path d="M33.9121 10.902C33.9121 11.3153 34.1808 11.6563 34.7181 11.925C35.2761 12.173 35.9478 12.4003 36.7331 12.607C37.5185 12.793 38.3038 13.041 39.0891 13.351C39.8745 13.6403 40.5358 14.1363 41.0731 14.839C41.6311 15.5417 41.9101 16.42 41.9101 17.474C41.9101 19.0653 41.3108 20.295 40.1121 21.163C38.9341 22.0103 37.4565 22.434 35.6791 22.434C32.4965 22.434 30.3265 21.2043 29.1691 18.745L32.6411 16.792C33.0958 18.1353 34.1085 18.807 35.6791 18.807C37.1051 18.807 37.8181 18.3627 37.8181 17.474C37.8181 17.0607 37.5391 16.73 36.9811 16.482C36.4438 16.2133 35.7825 15.9757 34.9971 15.769C34.2118 15.5623 33.4265 15.304 32.6411 14.994C31.8558 14.684 31.1841 14.1983 30.6261 13.537C30.0888 12.855 29.8201 12.0077 29.8201 10.995C29.8201 9.46567 30.3781 8.267 31.4941 7.399C32.6308 6.51034 34.0361 6.066 35.7101 6.066C36.9708 6.066 38.1178 6.35534 39.1511 6.934C40.1845 7.492 41.0008 8.298 41.6001 9.352L38.1901 11.212C37.6941 10.158 36.8675 9.631 35.7101 9.631C35.1935 9.631 34.7595 9.74467 34.4081 9.972C34.0775 10.1993 33.9121 10.5093 33.9121 10.902Z" fill="#1D1D1D"/>
<path d="M51.3438 10.344H47.8408V16.792C47.8408 17.3293 47.9752 17.722 48.2438 17.97C48.5125 18.218 48.9052 18.3627 49.4218 18.404C49.9385 18.4247 50.5792 18.4143 51.3438 18.373V22C48.5952 22.31 46.6525 22.0517 45.5158 21.225C44.3998 20.3983 43.8418 18.9207 43.8418 16.792V10.344H41.1448V6.5H43.8418V3.369L47.8408 2.16V6.5H51.3438V10.344Z" fill="#1D1D1D"/>
<path d="M67.3946 0.300003V4.392H61.5356V22H57.2576V4.392H51.4296V0.300003H67.3946Z" fill="#1D1D1D"/>
<path d="M77.0113 6.5H81.0103V22H77.0113V20.171C75.8127 21.6797 74.1283 22.434 71.9583 22.434C69.8917 22.434 68.1143 21.6487 66.6263 20.078C65.159 18.4867 64.4253 16.544 64.4253 14.25C64.4253 11.956 65.159 10.0237 66.6263 8.453C68.1143 6.86167 69.8917 6.066 71.9583 6.066C74.1283 6.066 75.8127 6.82034 77.0113 8.32901V6.5ZM69.6333 17.412C70.4393 18.218 71.4623 18.621 72.7023 18.621C73.9423 18.621 74.9653 18.218 75.7713 17.412C76.598 16.5853 77.0113 15.5313 77.0113 14.25C77.0113 12.9687 76.598 11.925 75.7713 11.119C74.9653 10.2923 73.9423 9.879 72.7023 9.879C71.4623 9.879 70.4393 10.2923 69.6333 11.119C68.8273 11.925 68.4243 12.9687 68.4243 14.25C68.4243 15.5313 68.8273 16.5853 69.6333 17.412Z" fill="#1D1D1D"/>
<path d="M86.6545 10.902C86.6545 11.3153 86.9232 11.6563 87.4605 11.925C88.0185 12.173 88.6902 12.4003 89.4755 12.607C90.2609 12.793 91.0462 13.041 91.8315 13.351C92.6169 13.6403 93.2782 14.1363 93.8155 14.839C94.3735 15.5417 94.6525 16.42 94.6525 17.474C94.6525 19.0653 94.0532 20.295 92.8545 21.163C91.6765 22.0103 90.1989 22.434 88.4215 22.434C85.2389 22.434 83.0689 21.2043 81.9115 18.745L85.3835 16.792C85.8382 18.1353 86.8509 18.807 88.4215 18.807C89.8475 18.807 90.5605 18.3627 90.5605 17.474C90.5605 17.0607 90.2815 16.73 89.7235 16.482C89.1862 16.2133 88.5248 15.9757 87.7395 15.769C86.9542 15.5623 86.1689 15.304 85.3835 14.994C84.5982 14.684 83.9265 14.1983 83.3685 13.537C82.8312 12.855 82.5625 12.0077 82.5625 10.995C82.5625 9.46567 83.1205 8.267 84.2365 7.399C85.3732 6.51034 86.7785 6.066 88.4525 6.066C89.7132 6.066 90.8602 6.35534 91.8935 6.934C92.9269 7.492 93.7432 8.298 94.3425 9.352L90.9325 11.212C90.4365 10.158 89.6099 9.631 88.4525 9.631C87.9359 9.631 87.5019 9.74467 87.1505 9.972C86.8199 10.1993 86.6545 10.5093 86.6545 10.902Z" fill="#1D1D1D"/>
<path d="M109.965 22H105.315L99.6733 14.963V22H95.6743V0.300003H99.6733V13.32L105.005 6.5H109.779L103.548 14.157L109.965 22Z" fill="#1D1D1D"/>
<path d="M124.547 22L123.245 18.094H114.596L113.294 22H108.675L116.27 0.300003H121.571L129.197 22H124.547ZM115.96 14.095H121.912L118.936 5.229L115.96 14.095Z" fill="#1D1D1D"/>
<path d="M138.589 6.066C140.677 6.066 142.454 6.86167 143.921 8.453C145.409 10.0237 146.153 11.956 146.153 14.25C146.153 16.544 145.409 18.4867 143.921 20.078C142.454 21.6487 140.677 22.434 138.589 22.434C136.419 22.434 134.745 21.6797 133.567 20.171V28.2H129.568V6.5H133.567V8.32901C134.745 6.82034 136.419 6.066 138.589 6.066ZM134.776 17.412C135.582 18.218 136.605 18.621 137.845 18.621C139.085 18.621 140.108 18.218 140.914 17.412C141.741 16.5853 142.154 15.5313 142.154 14.25C142.154 12.9687 141.741 11.925 140.914 11.119C140.108 10.2923 139.085 9.879 137.845 9.879C136.605 9.879 135.582 10.2923 134.776 11.119C133.97 11.925 133.567 12.9687 133.567 14.25C133.567 15.5313 133.97 16.5853 134.776 17.412Z" fill="#1D1D1D"/>
<path d="M156.445 6.066C158.532 6.066 160.309 6.86167 161.777 8.453C163.265 10.0237 164.009 11.956 164.009 14.25C164.009 16.544 163.265 18.4867 161.777 20.078C160.309 21.6487 158.532 22.434 156.445 22.434C154.275 22.434 152.601 21.6797 151.423 20.171V28.2H147.424V6.5H151.423V8.32901C152.601 6.82034 154.275 6.066 156.445 6.066ZM152.632 17.412C153.438 18.218 154.461 18.621 155.701 18.621C156.941 18.621 157.964 18.218 158.77 17.412C159.596 16.5853 160.01 15.5313 160.01 14.25C160.01 12.9687 159.596 11.925 158.77 11.119C157.964 10.2923 156.941 9.879 155.701 9.879C154.461 9.879 153.438 10.2923 152.632 11.119C151.826 11.925 151.423 12.9687 151.423 14.25C151.423 15.5313 151.826 16.5853 152.632 17.412Z" fill="#1D1D1D"/>
</svg>
